OpenSim_Sub08_CSStiffKnee_LCS.mot
version=1
nRows=26
nColumns=11
inDegrees=no
endheader
time	Bot_Shank	2nd_Bot_Shank	2nd_Top_Shank	Top_Shank	Bot_Thigh	Med_Thigh	Top_Thigh	BNOx	BNOy	BNOZ
26.41000000	8524.53176035	8778.78872415	9277.63919896	9090.11697166	10020.59569632	10820.57459645	11344.81625951	215.22602422	-56.52135445	148.12223604
26.42000000	8526.64394671	8791.39692196	9291.84334848	9115.66873771	10031.12010238	10820.59519120	11360.52770320	219.67432183	-54.35280109	139.00581343
26.43000000	8527.99081914	8801.61193173	9301.63484164	9136.77449524	10041.87930364	10819.43894295	11375.46157574	223.33865354	-52.60012917	128.47977875
26.44000000	8528.14847731	8807.50837331	9304.48532117	9149.71785715	10052.80208219	10816.75214979	11388.65493049	226.07625187	-51.36569212	118.64083001
26.45000000	8526.75935808	8807.45243028	9298.28140259	9151.31001053	10063.83021915	10812.29329806	11399.26232707	227.77018710	-50.73559600	111.36921007
26.46000000	8523.95617172	8801.96512400	9283.97660959	9142.26124509	10075.00156674	10806.65001530	11407.30676991	228.49448632	-50.67586845	106.94542271
26.47000000	8520.09137046	8792.53328055	9263.89906320	9125.02943996	10086.39703650	10800.78155258	11413.20050300	228.40876406	-51.09871759	104.93296391
26.48000000	8515.51844304	8780.64828170	9240.38336839	9102.08071756	10098.09774312	10795.64891392	11417.35760635	227.67303858	-51.91609769	104.89194754
26.49000000	8510.59087824	8767.80150919	9215.76413014	9075.88120034	10110.18480126	10792.21310333	11420.19215998	226.44732812	-53.03996302	106.38248749
26.50000000	8505.66216480	8755.48434480	9192.37595340	9048.89701076	10122.73932560	10791.43512483	11422.11824390	224.89165093	-54.38226784	108.96469761
26.51000000	8501.08579149	8745.18817029	9172.55344316	9023.59427125	10135.84243081	10794.27598242	11423.54993812	223.16602525	-55.85496643	112.19869178
26.52000000	8497.21524704	8738.40436740	9158.63120439	9002.43910426	10149.57523155	10801.69668014	11424.90132267	221.43046933	-57.37001305	115.64458388
26.53000000	8494.40402024	8736.62431790	9152.94384206	8987.89763223	10164.01884249	10814.65822198	11426.58647754	219.84500142	-58.83936197	118.86248778
26.54000000	8492.97538124	8741.10702651	9157.45223289	8982.07659881	10179.19633952	10833.88656051	11428.96162257	218.55142265	-60.18353771	121.46031859
26.55000000	8493.02926611	8751.39408644	9171.35516831	8984.42671357	10194.70185546	10858.37047100	11431.95535454	217.55689835	-61.38640436	123.39927238
26.56000000	8494.56551186	8766.25734196	9192.61346492	8993.20824381	10209.93726962	10886.32012079	11435.30460835	216.80824969	-62.46021500	124.79888685
26.57000000	8497.58348335	8784.46500644	9219.18209984	9006.67584151	10224.30355447	10915.94200449	11438.74541481	216.25201317	-63.41735660	125.77944655
26.58000000	8502.08254544	8804.78529327	9249.01605017	9023.08415866	10237.20168244	10945.44261673	11442.01380475	215.83472532	-64.27021614	126.46123604
26.59000000	8508.06206298	8825.98641582	9280.07029303	9040.68784724	10248.03262601	10973.02845215	11444.84580899	215.50292266	-65.03118061	126.96453991
26.60000000	8515.52140083	8846.83658747	9310.29980550	9057.74155923	10256.19735761	10996.90600538	11446.97745835	215.20314169	-65.71263698	127.40964270
26.61000000	8524.45992385	8866.10402161	9337.65956471	9072.49994663	10261.09684971	11015.28177105	11448.14478366	214.88191895	-66.32697224	127.91682900
26.62000000	8534.87699690	8882.55693161	9360.10454777	9083.21766141	10262.13207474	11026.36224379	11448.08381573	214.48579093	-66.88657337	128.60638336
26.63000000	8546.71977527	8895.18955221	9375.98123970	9088.49171220	10258.89939228	11028.78005491	11446.62802034	213.97071586	-67.40231940	129.57595480
26.64000000	8559.65302428	8904.21861773	9385.75370554	9088.77083899	10252.05196753	11023.47271483	11444.13786730	213.34361171	-67.87693327	130.80076157
26.65000000	8573.24647212	8910.27228955	9390.59867289	9085.12697416	10242.59862919	11012.15343135	11441.15118742	212.62854678	-68.31039300	132.21481838
26.66000000	8587.06977531	8913.97903910	9391.69340641	9078.63251971	10231.54847399	10996.53599680	11438.20594517	211.84960231	-68.70267456	133.75210890
